<svg xmlns="http://www.w3.org/2000/svg" viewBox="0 0 32 32">
<g id="menu" fill="currentColor">
  <rect x="4" y="6" width="24" height="2"/>
  <rect x="4" y="24" width="24" height="2"/>
  <rect x="4" y="12" width="24" height="2"/>
  <rect x="4" y="18" width="24" height="2"/>
</g>
<g id="search" fill="currentColor">
  <path d="M29,27.5859l-7.5521-7.5521a11.0177,11.0177,0,1,0-1.4141,1.4141L27.5859,29ZM4,13a9,9,0,1,1,9,9A9.01,9.01,0,0,1,4,13Z" />
</g>
<g id="close-fill" fill="currentColor">
  <path d="M16,2C8.2,2,2,8.2,2,16s6.2,14,14,14s14-6.2,14-14S23.8,2,16,2z M21.4,23L16,17.6L10.6,23L9,21.4l5.4-5.4L9,10.6L10.6,9l5.4,5.4L21.4,9l1.6,1.6L17.6,16l5.4,5.4L21.4,23z"/>
</g>
<g id="close" fill="currentColor">
  <polygon points="24 9.4 22.6 8 16 14.6 9.4 8 8 9.4 14.6 16 8 22.6 9.4 24 16 17.4 22.6 24 24 22.6 17.4 16 24 9.4"/>
</g>
<g id="add" fill="currentColor">
  <polygon points="17,15 17,8 15,8 15,15 8,15 8,17 15,17 15,24 17,24 17,17 24,17 24,15 "/>
</g>
<g id="remove" fill="currentColor">
  <rect x="8" y="15" width="16" height="2"/>
</g>
<g id="account" fill="currentColor">
  <path d="M16,8a5,5,0,1,0,5,5A5,5,0,0,0,16,8Zm0,8a3,3,0,1,1,3-3A3.0034,3.0034,0,0,1,16,16Z"/>
  <path d="M16,2A14,14,0,1,0,30,16,14.0158,14.0158,0,0,0,16,2ZM10,26.3765V25a3.0033,3.0033,0,0,1,3-3h6a3.0033,3.0033,0,0,1,3,3v1.3765a11.8989,11.8989,0,0,1-12,0Zm13.9925-1.4507A5.0016,5.0016,0,0,0,19,20H13a5.0016,5.0016,0,0,0-4.9925,4.9258,12,12,0,1,1,15.985,0Z"/>
</g>
<g id="password" fill="currentColor">
  <path d="M21,2a8.9977,8.9977,0,0,0-8.6119,11.6118L2,24v6H8L18.3881,19.6118A9,9,0,1,0,21,2Zm0,16a7.0125,7.0125,0,0,1-2.0322-.3022L17.821,17.35l-.8472.8472-3.1811,3.1812L12.4141,20,11,21.4141l1.3787,1.3786-1.5859,1.586L9.4141,23,8,24.4141l1.3787,1.3786L7.1716,28H4V24.8284l9.8023-9.8023.8472-.8474-.3473-1.1467A7,7,0,1,1,21,18Z"/>
  <circle cx="22" cy="10" r="2"/>
</g>
<g id="login" fill="currentColor">
  <path d="M26,30H14a2,2,0,0,1-2-2V25h2v3H26V4H14V7H12V4a2,2,0,0,1,2-2H26a2,2,0,0,1,2,2V28A2,2,0,0,1,26,30Z"/>
  <polygon points="14.59 20.59 18.17 17 4 17 4 15 18.17 15 14.59 11.41 16 10 22 16 16 22 14.59 20.59"/>
</g>
<g id="logout" fill="currentColor">
  <path d="M6,30H18a2.0023,2.0023,0,0,0,2-2V25H18v3H6V4H18V7h2V4a2.0023,2.0023,0,0,0-2-2H6A2.0023,2.0023,0,0,0,4,4V28A2.0023,2.0023,0,0,0,6,30Z"/>
  <polygon points="20.586 20.586 24.172 17 10 17 10 15 24.172 15 20.586 11.414 22 10 28 16 22 22 20.586 20.586"/>
</g>
<g id="group" fill="currentColor">
  <path d="M31,30H29V27a3,3,0,0,0-3-3H22a3,3,0,0,0-3,3v3H17V27a5,5,0,0,1,5-5h4a5,5,0,0,1,5,5Z"/>
  <path d="M24,12a3,3,0,1,1-3,3,3,3,0,0,1,3-3m0-2a5,5,0,1,0,5,5A5,5,0,0,0,24,10Z"/>
  <path d="M15,22H13V19a3,3,0,0,0-3-3H6a3,3,0,0,0-3,3v3H1V19a5,5,0,0,1,5-5h4a5,5,0,0,1,5,5Z"/>
  <path d="M8,4A3,3,0,1,1,5,7,3,3,0,0,1,8,4M8,2a5,5,0,1,0,5,5A5,5,0,0,0,8,2Z"/>
</g>
<g id="chat" fill="currentColor">
  <path d="M17.74,30,16,29l4-7h6a2,2,0,0,0,2-2V8a2,2,0,0,0-2-2H6A2,2,0,0,0,4,8V20a2,2,0,0,0,2,2h9v2H6a4,4,0,0,1-4-4V8A4,4,0,0,1,6,4H26a4,4,0,0,1,4,4V20a4,4,0,0,1-4,4H21.16Z"/>
  <rect x="8" y="10" width="16" height="2"/>
  <rect x="8" y="16" width="10" height="2"/>
</g>
</svg>